<svg viewBox="0 0 32 32" xmlns="http://www.w3.org/2000/svg" aria-hidden="true" style="display:block;height:24px;width:24px;fill:currentcolor"><path d="M15.03 1.75c.27-1 1.7-1 1.94.01.88 3.58 2.42 6.46 4.62 8.65 2.2 2.2 5.07 3.74 8.65 4.62 1.01.25 1.01 1.7 0 1.94-3.58.88-6.46 2.42-8.65 4.62-2.2 2.2-3.74 5.07-4.62 8.65-.25 1.01-1.7 1.01-1.94 0-.88-3.58-2.42-6.46-4.62-8.65-2.2-2.2-5.07-3.74-8.65-4.62-1-.25-1.02-1.68-.01-1.94 3.53-.92 6.4-2.49 8.6-4.69 2.2-2.2 3.76-5.06 4.68-8.6zm.95 3.51-.14.33a19.39 19.39 0 0 1-3.43 5.48l-.33.36-.32.33c-1.6 1.6-3.5 2.89-5.7 3.88l-.47.2-.32.14.35.14c2.1.85 3.95 2 5.52 3.4l.36.33.33.32c1.6 1.6 2.89 3.52 3.85 5.73l.2.48.12.3.12-.3c.85-2.1 2-3.95 3.4-5.52l.33-.36.32-.33c1.6-1.6 3.52-2.89 5.73-3.85l.48-.2.3-.12-.3-.12a18.61 18.61 0 0 1-6.2-4.05 18.42 18.42 0 0 1-3.86-5.73l-.2-.48-.14-.36zm11.04-3.89c.13-.5.84-.5.97.01.17.72.48 1.29.9 1.72.44.43 1.01.74 1.73.91.5.13.5.85 0 .98-.72.17-1.29.48-1.72.9-.43.44-.74 1.01-.91 1.73-.13.5-.85.5-.98 0a3.56 3.56 0 0 0-.9-1.72c-.44-.43-1.01-.74-1.73-.91-.5-.13-.5-.84 0-.97.7-.19 1.27-.5 1.7-.93.44-.44.75-1 .94-1.72z"/></svg>