<svg viewBox="0 0 32 32" xmlns="http://www.w3.org/2000/svg" aria-hidden="true" style="display:block;height:24px;width:24px;fill:currentcolor"><path d="m17.977 1.906.144.134 13.253 13.253-1.415 1.414-.96-.96L29 28.33a2 2 0 0 1-1.85 1.995l-.15.005H5a2 2 0 0 1-1.995-1.85L3 28.33V15.748l-.96.96-1.414-1.415L13.88 2.04a3 3 0 0 1 4.098-.134zm-2.59 1.466-.094.083L4.999 13.748 5 28.33h6v-9.997a2 2 0 0 1 1.85-1.994l.15-.006h6a2 2 0 0 1 1.995 1.851l.005.15v9.996h6V13.747L16.706 3.455a1 1 0 0 0-1.32-.083zM19 18.333h-6v9.997h6z"/><path d="m17.977 1.906.144.134 13.253 13.253-1.415 1.414-.96-.96L29 28.33a2 2 0 0 1-1.85 1.995l-.15.005H5a2 2 0 0 1-1.995-1.85L3 28.33V15.748l-.96.96-1.414-1.415L13.88 2.04a3 3 0 0 1 4.098-.134zm-2.59 1.466-.094.083L4.999 13.748 5 28.33h6v-9.997a2 2 0 0 1 1.85-1.994l.15-.006h6a2 2 0 0 1 1.995 1.851l.005.15v9.996h6V13.747L16.706 3.455a1 1 0 0 0-1.32-.083zM19 18.333h-6v9.997h6z"/></svg>