<svg viewBox="0 0 32 32" xmlns="http://www.w3.org/2000/svg" aria-hidden="true" style="display:block;height:24px;width:24px;fill:currentcolor"><path d="M15 1.03a2 2 0 0 0-.82.9l-3.6 7.76-8.63 1.11a2 2 0 0 0-1.73 2.24l.03.18a2 2 0 0 0 .62 1.05L7.23 20l-1.72 8.6a2 2 0 0 0 1.57 2.36l.18.02a2 2 0 0 0 1.22-.26L16 26.38l7.52 4.35a2 2 0 0 0 2.73-.72l.09-.16a2 2 0 0 0 .14-1.24L24.77 20l6.36-5.73a2 2 0 0 0 .15-2.83l-.13-.12a2 2 0 0 0-1.1-.52l-8.63-1.11-3.6-7.77a2 2 0 0 0-2.66-.97zm-3.07 10.5L16 2.77l4.07 8.76 9.72 1.25-7.2 6.5L24.51 29 16 24.06 7.47 29l1.94-9.73-7.2-6.49z"/></svg>